<svg xmlns="http://www.w3.org/2000/svg" width="512" height="512" viewBox="0 0 512 512" version="1.1"><path d="M 213 46.625 C 176.062 51.618, 143.818 65.179, 116.136 87.364 C 106.467 95.112, 90 110.644, 90 112.016 C 90 112.443, 88.425 114.176, 86.500 115.866 C 84.575 117.556, 83 119.399, 83 119.961 C 83 120.523, 82.100 121.545, 81 122.232 C 79.900 122.919, 79 124.062, 79 124.772 C 79 125.482, 78.325 126.322, 77.500 126.638 C 76.675 126.955, 76 127.855, 76 128.638 C 76 129.422, 75.325 130.322, 74.500 130.638 C 73.675 130.955, 73 131.841, 73 132.607 C 73 133.373, 72.550 134, 72 134 C 71.450 134, 71 134.675, 71 135.500 C 71 136.325, 70.550 137, 70 137 C 69.450 137, 69 137.675, 69 138.500 C 69 139.325, 68.580 140, 68.067 140 C 67.554 140, 66.820 140.992, 66.435 142.203 C 66.051 143.415, 65.121 145.022, 64.368 145.775 C 63.616 146.527, 63 147.786, 63 148.571 C 63 149.357, 62.618 150, 62.151 150 C 60.936 150, 52.832 167.731, 48.667 179.500 C 40.418 202.810, 38 218.984, 38 250.858 C 38 271.239, 38.269 275.012, 40.550 286.573 C 41.953 293.683, 43.532 300.850, 44.060 302.500 C 51.269 325.036, 61.969 351, 64.048 351 C 64.452 351, 65.066 352.125, 65.411 353.500 C 65.756 354.875, 66.480 356, 67.019 356 C 67.559 356, 68 356.675, 68 357.500 C 68 358.325, 68.450 359, 69 359 C 69.550 359, 70 359.675, 70 360.500 C 70 361.325, 70.450 362, 71 362 C 71.550 362, 72 362.675, 72 363.500 C 72 364.325, 72.450 365, 73 365 C 73.550 365, 74 365.627, 74 366.393 C 74 367.159, 74.675 368.045, 75.500 368.362 C 76.325 368.678, 77 369.578, 77 370.362 C 77 371.145, 77.675 372.045, 78.500 372.362 C 79.325 372.678, 80 373.449, 80 374.075 C 80 374.700, 81.125 376.097, 82.500 377.179 C 83.875 378.260, 85.043 379.675, 85.096 380.323 C 85.251 382.213, 112.748 407.532, 121.500 413.843 C 152.981 436.543, 184.593 448.451, 223 452.076 C 251.461 454.762, 287.280 449.791, 314.478 439.380 C 327.088 434.554, 327.511 433.917, 325.425 422.911 C 322.015 404.926, 313.818 389.730, 301.005 377.643 C 293.061 370.150, 292.144 369.920, 282.792 373.070 C 269.033 377.705, 258.297 379.333, 241 379.408 C 228.432 379.463, 222.474 379.037, 216 377.623 C 189.132 371.755, 167.149 359.463, 147 339.039 C 130.632 322.449, 121.908 307.620, 115.502 285.500 C 107.602 258.222, 108.525 227.589, 117.983 203.181 C 127.529 178.545, 147.847 152.982, 168.781 139.270 C 186.587 127.606, 208.208 120.234, 231.550 117.868 C 262.621 114.718, 294.845 124.391, 321.477 144.863 C 329.363 150.924, 342 162.946, 342 164.387 C 342 165.009, 342.900 166.081, 344 166.768 C 345.100 167.455, 346 168.640, 346 169.401 C 346 170.163, 346.675 171.045, 347.500 171.362 C 348.325 171.678, 349 172.626, 349 173.469 C 349 174.311, 349.450 175, 350 175 C 350.550 175, 351 175.675, 351 176.500 C 351 177.325, 351.450 178, 352 178 C 352.550 178, 353 178.643, 353 179.429 C 353 180.214, 353.568 181.452, 354.262 182.179 C 356.195 184.203, 362.643 198.610, 365.371 207 C 369.396 219.377, 370.735 226.938, 371.918 243.967 C 373.049 260.239, 371.976 269.087, 367.023 284.309 C 364.115 293.248, 363.067 297.911, 363.543 299.799 C 364.415 303.263, 380.434 318.038, 388.689 322.993 C 396.192 327.496, 412.413 333.034, 420.184 333.745 C 425.759 334.256, 425.906 334.203, 427.876 330.964 C 430.790 326.172, 438.553 302.132, 440.943 290.500 C 443.957 275.826, 445.627 242.023, 444.075 227.076 C 438.474 173.128, 412.047 124.129, 370.530 90.715 C 339.749 65.942, 307.769 51.653, 271.500 46.467 C 258.742 44.642, 227.033 44.728, 213 46.625" stroke="none" fill="#fbcb04" fill-rule="evenodd"/><path d="M 220.608 168.106 C 212.053 170.545, 201.004 175.598, 194.185 180.189 C 188.369 184.106, 176.550 195.125, 175.650 197.469 C 175.327 198.311, 174.599 199, 174.031 199 C 173.464 199, 173 199.675, 173 200.500 C 173 201.325, 172.580 202, 172.067 202 C 171.554 202, 170.819 203.012, 170.433 204.250 C 170.046 205.488, 169.408 206.725, 169.014 207 C 167.731 207.895, 162.099 223.322, 160.435 230.500 C 158.240 239.969, 158.186 259.375, 160.330 268.224 C 162.139 275.690, 167.856 290, 169.030 290 C 169.444 290, 170.066 291.125, 170.411 292.500 C 170.756 293.875, 171.480 295, 172.019 295 C 172.559 295, 173 295.675, 173 296.500 C 173 297.325, 173.450 298, 174 298 C 174.550 298, 175 298.498, 175 299.106 C 175 299.714, 176.125 301.097, 177.500 302.179 C 178.875 303.260, 180.018 304.675, 180.041 305.323 C 180.116 307.504, 195.238 318.907, 203.403 322.940 C 214.698 328.519, 225.254 330.742, 246 331.912 C 259.798 332.691, 265.404 333.452, 272.500 335.512 C 283.287 338.642, 297.380 345.157, 306.123 351.054 C 313.308 355.900, 327 368.695, 327 370.562 C 327 371.235, 327.675 372.045, 328.500 372.362 C 329.325 372.678, 330 373.626, 330 374.469 C 330 375.311, 330.450 376, 331 376 C 331.550 376, 332 376.675, 332 377.500 C 332 378.325, 332.450 379, 333 379 C 333.550 379, 334 379.643, 334 380.429 C 334 381.214, 334.574 382.452, 335.275 383.179 C 337.210 385.184, 343.818 400.231, 345.506 406.474 C 346.328 409.513, 347.642 414.369, 348.426 417.265 C 350.632 425.407, 354.044 434, 355.072 434 C 355.582 434, 356 434.675, 356 435.500 C 356 436.325, 356.450 437, 357 437 C 357.550 437, 358.038 437.563, 358.084 438.250 C 358.226 440.359, 371.682 451.698, 377.248 454.400 C 398.273 464.604, 422.160 460.283, 438.396 443.339 C 456.869 424.061, 456.531 389.920, 437.679 371 C 429.588 362.880, 423.193 359.465, 409.525 355.964 C 395.530 352.381, 384.921 348.296, 376.546 343.266 C 353.897 329.664, 338.347 310.142, 328.543 283 C 324.483 271.761, 323 262.280, 323 247.572 C 323 231.304, 321.010 222.437, 314.398 209.241 C 304.238 188.966, 284.329 173.644, 260.818 168.008 C 249.438 165.280, 230.361 165.327, 220.608 168.106" stroke="none" fill="#fb3433" fill-rule="evenodd"/></svg>